HIERARCHY
ROOT Hips
{
  OFFSET 0.000000 0.000000 0.000000
  CHANNELS 6 Xposition Yposition Zposition Zrotation Yrotation Xrotation
  JOINT Spine
  {
    OFFSET -0.036024 2.124228 -0.302492
    CHANNELS 3 Zrotation Yrotation Xrotation
    JOINT Spine1
    {
      OFFSET 0.027172 2.100430 0.129121
      CHANNELS 3 Zrotation Yrotation Xrotation
      JOINT Spine2
      {
        OFFSET 0.038535 2.157190 0.286859
        CHANNELS 3 Zrotation Yrotation Xrotation
        JOINT Neck
        {
          OFFSET -0.063713 1.886563 0.116018
          CHANNELS 3 Zrotation Yrotation Xrotation
          JOINT Head
          {
            OFFSET 0.033824 1.930896 -0.054826
            CHANNELS 3 Zrotation Yrotation Xrotation
            End Site
            {
              OFFSET 0 0 0
            }
          }
        }
        JOINT LeftShoulder
        {
          OFFSET 3.309027 1.403566 0.201558
          CHANNELS 3 Zrotation Yrotation Xrotation
          JOINT LeftArm
          {
            OFFSET 5.433010 -0.000000 0.000000
            CHANNELS 3 Zrotation Yrotation Xrotation
            JOINT LeftForeArm
            {
              OFFSET 3.159360 -0.000000 0.000000
              CHANNELS 3 Zrotation Yrotation Xrotation
              JOINT LeftHand
              {
                OFFSET 0.712827 -0.000000 0.000000
                CHANNELS 3 Zrotation Yrotation Xrotation
                JOINT LeftHandIndex1
                {
                  OFFSET 0.574699 -0.000000 0.000000
                  CHANNELS 3 Zrotation Yrotation Xrotation
                  End Site
                  {
                    OFFSET 0 0 0
                  }
                }
              }
            }
          }
        }
        JOINT RightShoulder
        {
          OFFSET -3.129471 1.600370 -0.004644
          CHANNELS 3 Zrotation Yrotation Xrotation
          JOINT RightArm
          {
            OFFSET -5.341940 -0.000000 0.000000
            CHANNELS 3 Zrotation Yrotation Xrotation
            JOINT RightForeArm
            {
              OFFSET -3.193510 -0.000000 0.000000
              CHANNELS 3 Zrotation Yrotation Xrotation
              JOINT RightHand
              {
                OFFSET -0.743862 -0.000000 0.000000
                CHANNELS 3 Zrotation Yrotation Xrotation
                JOINT RightHandIndex1
                {
                  OFFSET -0.599721 -0.000000 0.000000
                  CHANNELS 3 Zrotation Yrotation Xrotation
                  End Site
                  {
                    OFFSET 0 0 0
                  }
                }
              }
            }
          }
        }
      }
    }
  }
  JOINT LeftUpLeg
  {
    OFFSET 2.437905 -6.698094 0.000000
    CHANNELS 3 Zrotation Yrotation Xrotation
    JOINT LeftLeg
    {
      OFFSET 2.592881 -7.123888 0.000000
      CHANNELS 3 Zrotation Yrotation Xrotation
      JOINT LeftFoot
      {
        OFFSET 0.145520 -0.399812 2.131603
        CHANNELS 3 Zrotation Yrotation Xrotation
        JOINT LeftToeBase
        {
          OFFSET 0.000000 -0.000000 1.094270
          CHANNELS 3 Zrotation Yrotation Xrotation
          End Site
          {
            OFFSET 0 0 0
          }
        }
      }
    }
  }
  JOINT RightUpLeg
  {
    OFFSET -2.507027 -6.888006 0.000000
    CHANNELS 3 Zrotation Yrotation Xrotation
    JOINT RightLeg
    {
      OFFSET -2.616200 -7.187956 0.000000
      CHANNELS 3 Zrotation Yrotation Xrotation
      JOINT RightFoot
      {
        OFFSET -0.151904 -0.417351 2.159736
        CHANNELS 3 Zrotation Yrotation Xrotation
        JOINT RightToeBase
        {
          OFFSET -0.000000 -0.000000 1.109190
          CHANNELS 3 Zrotation Yrotation Xrotation
          End Site
          {
            OFFSET 0 0 0
          }
        }
      }
    }
  }
}
MOTION
Frames: 12
Frame Time: 0.00833333
-2.484570 16.192400 -39.109600 -9.489460 -18.607100 8.157280 -0.336415 0.678535 -42.846400 0.000000 0.000000 44.394800 -0.990868 0.000000 -6.162640 0.000000 0.000000 -5.808300 26.134600 0.490351 -8.882870 0.000000 0.000000 40.666700 -22.394200 0.000000 -24.458400 0.000000 0.000000 -19.931400 3.014020 2.405580 7.778750 3.248160 3.693960 -1.529620 1.228630 1.771340 -5.994020 -10.939300 -11.586700 3.192250 4.190850 -8.250850 3.546120 0.000000 0.000000 0.000000 82.612300 5.024820 -27.237300 0.000000 0.000000 22.659400 19.110700 0.000000 -27.215700 0.000000 0.000000 7.125020 0.000000 0.000000 0.000000 -89.974200 27.198000 -18.129700 0.000000 0.000000 42.863700 -35.401300 0.000000 -16.998400 0.000000 0.000000 7.125020
-2.484340 16.190800 -39.107100 -9.462740 -18.568100 8.093180 -0.385480 0.689211 -42.812100 0.000000 0.000000 44.401000 -1.084920 0.000000 -6.137890 0.000000 0.000000 -5.798340 26.115800 0.480718 -8.810900 0.000000 0.000000 40.665900 -22.413800 0.000000 -24.497400 0.000000 0.000000 -19.791200 2.990230 2.413330 7.796480 3.220770 3.703050 -1.559900 1.210810 1.775580 -6.035690 -11.595200 -11.407500 3.168480 4.527010 -8.176030 3.696920 -0.000000 0.000000 0.000000 82.356200 5.425600 -27.552500 0.000000 0.000000 22.340000 19.115100 0.000000 -27.107400 0.000000 0.000000 7.125020 -0.000000 0.000000 0.000000 -90.090700 26.809600 -18.614000 0.000000 0.000000 42.537100 -35.624600 0.000000 -16.422000 0.000000 0.000000 7.125020
-2.484250 16.189400 -39.104700 -9.434780 -18.504000 8.038610 -0.438618 0.691452 -42.803800 0.000000 0.000000 44.410200 -1.153870 0.000000 -6.121410 0.000000 0.000000 -5.877070 26.094200 0.429483 -8.747090 0.000000 0.000000 40.670400 -22.437700 0.000000 -24.520400 0.000000 0.000000 -19.751500 2.965460 2.410520 7.788050 3.200390 3.696340 -1.579230 1.204180 1.772610 -6.051350 -11.603700 -11.432200 3.121540 4.519200 -8.190250 3.717680 -0.000000 -0.000000 0.000000 82.097300 5.857220 -27.816000 0.000000 0.000000 21.956400 19.137200 0.000000 -27.029600 0.000000 0.000000 7.125020 -0.000000 -0.000000 0.000000 -90.213300 26.486500 -19.105800 0.000000 0.000000 41.938400 -35.049500 0.000000 -17.008900 0.000000 0.000000 7.125020
-2.483960 16.187600 -39.103500 -9.400170 -18.450300 7.989210 -0.490825 0.693321 -42.787400 0.000000 0.000000 44.418300 -1.213810 0.000000 -6.121280 0.000000 0.000000 -5.851330 26.062900 0.376434 -8.701640 0.000000 0.000000 40.676900 -22.462300 0.000000 -24.536000 0.000000 0.000000 -19.890700 2.933730 2.406470 7.773200 3.174250 3.686480 -1.595940 1.196140 1.768330 -6.060600 -11.628800 -11.446000 3.102950 4.526090 -8.200490 3.734200 -0.000000 -0.000000 0.000000 81.844200 6.245590 -28.106100 0.000000 0.000000 21.679700 19.129500 0.000000 -27.012400 0.000000 0.000000 7.125020 -0.000000 -0.000000 0.000000 -90.326500 26.128500 -19.576800 0.000000 0.000000 41.463100 -35.191000 0.000000 -16.911600 0.000000 0.000000 7.125020
-2.484250 16.185400 -39.102600 -9.398480 -18.402000 7.934920 -0.507407 0.711485 -42.762300 0.000000 0.000000 44.416400 -1.323810 0.000000 -6.123730 0.000000 0.000000 -5.765690 26.072000 0.360004 -8.637740 0.000000 0.000000 40.677700 -22.495700 0.000000 -24.553100 0.000000 0.000000 -19.863600 2.916770 2.398160 7.756520 3.172340 3.673430 -1.608400 1.205730 1.762460 -6.065100 -11.657700 -11.452400 3.116120 4.528110 -8.206640 3.732950 -0.000000 -0.000000 0.000000 81.625100 6.549440 -28.454700 0.000000 0.000000 21.464900 18.906200 0.000000 -26.985900 0.000000 0.000000 7.125020 -0.000000 -0.000000 0.000000 -90.432800 25.776600 -20.068900 0.000000 0.000000 40.703800 -34.173500 0.000000 -17.452900 0.000000 0.000000 7.125020
-2.484020 16.183800 -39.102000 -9.367650 -18.324600 7.883570 -0.557875 0.703594 -42.772400 0.000000 0.000000 44.435800 -1.391680 0.000000 -6.082750 0.000000 0.000000 -5.645040 26.053300 0.321216 -8.588970 0.000000 0.000000 40.682300 -22.515900 0.000000 -24.585700 0.000000 0.000000 -19.779800 2.873970 2.363860 7.748710 3.169560 3.623650 -1.622730 1.233080 1.739320 -6.077970 -11.714800 -11.437500 3.150110 4.549300 -8.200970 3.721970 0.000000 -0.000000 0.000000 81.393000 6.911980 -28.791200 0.000000 0.000000 21.275900 18.973800 0.000000 -26.929600 0.000000 0.000000 7.125020 0.000000 -0.000000 0.000000 -90.505400 25.398100 -20.518800 0.000000 0.000000 40.249300 -34.891700 0.000000 -16.978700 0.000000 0.000000 7.125020
-2.488860 16.184900 -39.095800 -9.206750 -18.271900 7.735630 -0.735774 0.648988 -42.667300 0.000000 0.000000 44.449700 -1.400050 0.000000 -6.130380 0.000000 0.000000 -5.631570 25.902500 0.263933 -8.437210 0.000000 0.000000 40.682400 -22.523500 0.000000 -24.665900 0.000000 0.000000 -19.615600 2.709970 2.380980 7.751780 3.109110 3.626840 -1.613090 1.260930 1.745940 -6.075230 -11.500300 -11.528900 3.103900 4.436840 -8.247010 3.714960 -0.000000 -0.000000 0.000000 81.214900 6.990190 -29.175200 0.000000 0.000000 21.150600 18.675600 0.000000 -27.153700 0.000000 0.000000 7.125020 -0.000000 -0.000000 0.000000 -90.569900 24.759500 -21.066700 0.000000 0.000000 39.665300 -35.034600 0.000000 -16.919200 0.000000 0.000000 7.125020
-2.484110 16.178200 -39.100600 -9.421690 -18.187500 7.787650 -0.539571 0.728135 -42.769800 0.000000 0.000000 44.503000 -1.516550 0.000000 -6.089830 0.000000 0.000000 -5.647250 26.121500 0.195677 -8.454690 0.000000 0.000000 40.684900 -22.544200 0.000000 -24.618800 0.000000 0.000000 -19.713600 2.960950 2.373110 7.773770 3.133100 3.642890 -1.605170 1.143340 1.745050 -6.065950 -11.681700 -11.512600 2.959880 4.530870 -8.237460 3.777250 -0.000000 0.000000 0.000000 80.973400 7.429990 -29.257500 0.000000 0.000000 20.853600 18.859800 0.000000 -26.754500 0.000000 0.000000 7.125020 -0.000000 0.000000 0.000000 -90.530200 24.316700 -21.315200 0.000000 0.000000 38.880000 -34.649800 0.000000 -16.906900 0.000000 0.000000 7.125020
-2.484400 16.175500 -39.100100 -9.435430 -18.114400 7.749900 -0.537806 0.717282 -42.784000 0.000000 0.000000 44.541200 -1.556890 0.000000 -6.107560 0.000000 0.000000 -5.772650 26.150500 0.153008 -8.402170 0.000000 0.000000 40.689000 -22.534100 0.000000 -24.684300 0.000000 0.000000 -19.553700 2.973120 2.368340 7.774350 3.124530 3.637790 -1.615010 1.128060 1.741810 -6.075330 -11.678700 -11.505500 2.910800 4.556970 -8.231220 3.789920 0.000000 0.000000 0.000000 80.795600 7.616250 -29.570300 0.000000 0.000000 20.778700 18.688500 0.000000 -26.679700 0.000000 0.000000 7.125020 0.000000 0.000000 0.000000 -90.530900 23.771900 -21.735900 0.000000 0.000000 38.081800 -34.424300 0.000000 -16.945500 0.000000 0.000000 7.125020
-2.484480 16.172400 -39.099100 -9.455000 -18.033800 7.709810 -0.529795 0.710700 -42.803500 0.000000 0.000000 44.599800 -1.574890 0.000000 -6.172850 0.000000 0.000000 -5.970320 26.184200 0.105870 -8.341420 0.000000 0.000000 40.695200 -22.571500 0.000000 -24.709500 0.000000 0.000000 -19.540500 2.994350 2.351100 7.763830 3.120060 3.616920 -1.631680 1.114380 1.730520 -6.085310 -11.674100 -11.516400 2.870990 4.549600 -8.237880 3.818940 0.000000 0.000000 0.000000 80.614800 7.800060 -29.853100 0.000000 0.000000 20.635500 18.666600 0.000000 -26.525400 0.000000 0.000000 7.125020 0.000000 0.000000 0.000000 -90.543600 23.234800 -22.189100 0.000000 0.000000 37.305300 -35.286400 0.000000 -16.513700 0.000000 0.000000 7.125020
-2.485090 16.170000 -39.098800 -9.448260 -17.979800 7.672110 -0.537413 0.691105 -42.811200 0.000000 0.000000 44.627700 -1.537960 0.000000 -6.241750 0.000000 0.000000 -6.264990 26.182000 0.051406 -8.301780 0.000000 0.000000 40.706000 -22.559100 0.000000 -24.764900 0.000000 0.000000 -19.448500 2.949500 2.332020 7.769830 3.125740 3.588910 -1.654650 1.148220 1.718070 -6.116040 -11.728400 -11.553900 2.961320 4.539420 -8.269010 3.797600 -0.000000 0.000000 0.000000 80.460800 7.966380 -30.158600 0.000000 0.000000 20.540200 18.716400 0.000000 -26.473600 0.000000 0.000000 7.125020 -0.000000 0.000000 0.000000 -90.534100 22.739300 -22.643400 0.000000 0.000000 36.525300 -35.494600 0.000000 -16.466800 0.000000 0.000000 7.125020
-2.485810 16.168000 -39.098300 -9.457320 -17.944700 7.637470 -0.549523 0.725570 -42.806300 0.000000 0.000000 44.657100 -1.450170 0.000000 -6.336960 0.000000 0.000000 -6.884070 26.196100 0.003880 -8.262140 0.000000 0.000000 40.719800 -22.589700 0.000000 -24.753300 0.000000 0.000000 -19.659000 2.945290 2.327780 7.738330 3.120560 3.581060 -1.657500 1.147410 1.714510 -6.100950 -11.079800 -11.759900 3.017860 4.189440 -8.366010 3.655010 0.000000 -0.000000 0.000000 80.312900 8.085460 -30.424900 0.000000 0.000000 20.463800 18.419000 0.000000 -26.463800 0.000000 0.000000 7.125020 0.000000 -0.000000 0.000000 -90.484200 22.134500 -23.016200 0.000000 0.000000 35.619200 -35.222200 0.000000 -16.395600 0.000000 0.000000 7.125020
